%
M48
M72
T01C0.0118
T02C0.0315
T03C0.0374
T04C0.0400
T05C0.1260
%
T01
X11759Y3733
X11757Y4487
X18749Y4117
X19251Y4127
X19261Y3617
X19753Y3615
X19044Y5013
X20452Y5219
X20944Y5239
X21436Y5239
X21928Y5239
X22420Y5239
X22893Y5239
X23385Y5239
X23897Y5239
X24389Y5239
X24881Y5239
X25353Y5239
X25845Y5239
X25826Y6341
X25334Y6341
X24861Y6341
X24369Y6341
X23877Y6341
X23365Y6341
X22873Y6341
X22400Y6341
X21928Y6341
X21485Y6341
X20934Y6341
X20452Y6341
X19349Y6755
X19044Y7404
X18749Y8123
X20373Y7975
X25235Y10318
X26042Y11351
X26023Y8625
X20225Y11794
X20225Y12788
X15855Y15958
X16052Y16981
X16475Y17985
X16475Y18477
X20353Y16519
X25048Y15210
X15156Y11794
T02
X14320Y4107
X13326Y4107
T03
X18255Y4271
X18255Y3471
X20255Y3871
T04
X2324Y1050
X3324Y1050
X4324Y1050
X5324Y1050
X6324Y1050
X7324Y1050
X8324Y1050
X9324Y1050
X10324Y1050
X11332Y1056
X12324Y1050
X13324Y1050
X14324Y1050
X15324Y1050
X16324Y1050
X17324Y1050
X18324Y1050
X19324Y1050
X20324Y1050
X21324Y1050
X22324Y1050
X23324Y1050
X24324Y1050
X24324Y2050
X23324Y2050
X22324Y2050
X21324Y2050
X20324Y2050
X19324Y2050
X18324Y2050
X17324Y2050
X16324Y2050
X15324Y2050
X14324Y2050
X13324Y2050
X12324Y2050
X11332Y2060
X10324Y2050
X9324Y2050
X8324Y2050
X7324Y2050
X6324Y2050
X5324Y2050
X4324Y2050
X3324Y2050
X2324Y2050
X4324Y3267
X4324Y4267
X5324Y4267
X6322Y4257
X7326Y4257
X8326Y4257
X9314Y4257
X9324Y3257
X8326Y3257
X7326Y3257
X6322Y3257
X5324Y3267
X5314Y5501
X6312Y5491
X7316Y5491
X8316Y5491
X9314Y5481
X9314Y6481
X8316Y6491
X7316Y6491
X6312Y6491
X5314Y6501
X4314Y6501
X4314Y5501
X4314Y7501
X5314Y7501
X6312Y7491
X7316Y7491
X8316Y7491
X9314Y7481
X9314Y8481
X8316Y8491
X7316Y8491
X6312Y8491
X5314Y8501
X4314Y8501
X4314Y9501
X5314Y9501
X6312Y9491
X7316Y9491
X8316Y9491
X9314Y9481
X9314Y10481
X8316Y10491
X7316Y10491
X6312Y10491
X5314Y10501
X4314Y10501
X4314Y11501
X5314Y11501
X6312Y11491
X7316Y11491
X8316Y11491
X9314Y11481
X9314Y12481
X8316Y12491
X8316Y13491
X9314Y13481
X9314Y14481
X8316Y14491
X8316Y15491
X9314Y15481
X9314Y16481
X8316Y16491
X7316Y16491
X6312Y16491
X5314Y16501
X4314Y16501
X4314Y15501
X5314Y15501
X6312Y15491
X7316Y15491
X7316Y14491
X6312Y14491
X5314Y14501
X4314Y14501
X4314Y13501
X5314Y13501
X6312Y13491
X7316Y13491
X7316Y12491
X6312Y12491
X5314Y12501
X4314Y12501
X4314Y17765
X5314Y17765
X6312Y17755
X7316Y17755
X8316Y17755
X9314Y17745
X9314Y18745
X8316Y18755
X7316Y18755
X6312Y18755
X5314Y18765
X4314Y18765
X4324Y20036
X3324Y20036
X2324Y20036
X2324Y21036
X3324Y21036
X4324Y21036
X5324Y21036
X6324Y21036
X7324Y21036
X8324Y21036
X9324Y21036
X10324Y21036
X11324Y21036
X12324Y21036
X13324Y21036
X14324Y21036
X15324Y21036
X16324Y21036
X17324Y21036
X18324Y21036
X19324Y21036
X20324Y21036
X21324Y21036
X22324Y21036
X23324Y21036
X24324Y21036
X24324Y20036
X23324Y20036
X22324Y20036
X21324Y20036
X20324Y20036
X19324Y20036
X18324Y20036
X17324Y20036
X16324Y20036
X15324Y20036
X14324Y20036
X13324Y20036
X12324Y20036
X11324Y20036
X10324Y20036
X9324Y20036
X8324Y20036
X7324Y20036
X6324Y20036
X5324Y20036
X11771Y16483
X11771Y15483
X11771Y14483
X11771Y13483
X11761Y12487
X11761Y11487
X11761Y10487
X11761Y9487
X11761Y8501
X11761Y7501
X11761Y6501
X11761Y5501
T05
X26056Y2808
X26007Y19314
M30
