G75*
%MOIN*%
%OFA0B0*%
%FSLAX24Y24*%
%IPPOS*%
%LPD*%
%AMOC8*
5,1,8,0,0,1.08239X$1,22.5*
%
%ADD10C,0.0000*%
%ADD11C,0.0079*%
D10*
X018068Y003471D02*
X018070Y003498D01*
X018076Y003524D01*
X018085Y003549D01*
X018098Y003572D01*
X018114Y003593D01*
X018133Y003612D01*
X018154Y003628D01*
X018177Y003641D01*
X018202Y003650D01*
X018228Y003656D01*
X018255Y003658D01*
X018282Y003656D01*
X018308Y003650D01*
X018333Y003641D01*
X018356Y003628D01*
X018377Y003612D01*
X018396Y003593D01*
X018412Y003572D01*
X018425Y003549D01*
X018434Y003524D01*
X018440Y003498D01*
X018442Y003471D01*
X018440Y003444D01*
X018434Y003418D01*
X018425Y003393D01*
X018412Y003370D01*
X018396Y003349D01*
X018377Y003330D01*
X018356Y003314D01*
X018333Y003301D01*
X018308Y003292D01*
X018282Y003286D01*
X018255Y003284D01*
X018228Y003286D01*
X018202Y003292D01*
X018177Y003301D01*
X018154Y003314D01*
X018133Y003330D01*
X018114Y003349D01*
X018098Y003370D01*
X018085Y003393D01*
X018076Y003418D01*
X018070Y003444D01*
X018068Y003471D01*
X018068Y004271D02*
X018070Y004298D01*
X018076Y004324D01*
X018085Y004349D01*
X018098Y004372D01*
X018114Y004393D01*
X018133Y004412D01*
X018154Y004428D01*
X018177Y004441D01*
X018202Y004450D01*
X018228Y004456D01*
X018255Y004458D01*
X018282Y004456D01*
X018308Y004450D01*
X018333Y004441D01*
X018356Y004428D01*
X018377Y004412D01*
X018396Y004393D01*
X018412Y004372D01*
X018425Y004349D01*
X018434Y004324D01*
X018440Y004298D01*
X018442Y004271D01*
X018440Y004244D01*
X018434Y004218D01*
X018425Y004193D01*
X018412Y004170D01*
X018396Y004149D01*
X018377Y004130D01*
X018356Y004114D01*
X018333Y004101D01*
X018308Y004092D01*
X018282Y004086D01*
X018255Y004084D01*
X018228Y004086D01*
X018202Y004092D01*
X018177Y004101D01*
X018154Y004114D01*
X018133Y004130D01*
X018114Y004149D01*
X018098Y004170D01*
X018085Y004193D01*
X018076Y004218D01*
X018070Y004244D01*
X018068Y004271D01*
X020068Y003871D02*
X020070Y003898D01*
X020076Y003924D01*
X020085Y003949D01*
X020098Y003972D01*
X020114Y003993D01*
X020133Y004012D01*
X020154Y004028D01*
X020177Y004041D01*
X020202Y004050D01*
X020228Y004056D01*
X020255Y004058D01*
X020282Y004056D01*
X020308Y004050D01*
X020333Y004041D01*
X020356Y004028D01*
X020377Y004012D01*
X020396Y003993D01*
X020412Y003972D01*
X020425Y003949D01*
X020434Y003924D01*
X020440Y003898D01*
X020442Y003871D01*
X020440Y003844D01*
X020434Y003818D01*
X020425Y003793D01*
X020412Y003770D01*
X020396Y003749D01*
X020377Y003730D01*
X020356Y003714D01*
X020333Y003701D01*
X020308Y003692D01*
X020282Y003686D01*
X020255Y003684D01*
X020228Y003686D01*
X020202Y003692D01*
X020177Y003701D01*
X020154Y003714D01*
X020133Y003730D01*
X020114Y003749D01*
X020098Y003770D01*
X020085Y003793D01*
X020076Y003818D01*
X020070Y003844D01*
X020068Y003871D01*
X025426Y002808D02*
X025428Y002858D01*
X025434Y002908D01*
X025444Y002957D01*
X025458Y003005D01*
X025475Y003052D01*
X025496Y003097D01*
X025521Y003141D01*
X025549Y003182D01*
X025581Y003221D01*
X025615Y003258D01*
X025652Y003292D01*
X025692Y003322D01*
X025734Y003349D01*
X025778Y003373D01*
X025824Y003394D01*
X025871Y003410D01*
X025919Y003423D01*
X025969Y003432D01*
X026018Y003437D01*
X026069Y003438D01*
X026119Y003435D01*
X026168Y003428D01*
X026217Y003417D01*
X026265Y003402D01*
X026311Y003384D01*
X026356Y003362D01*
X026399Y003336D01*
X026440Y003307D01*
X026479Y003275D01*
X026515Y003240D01*
X026547Y003202D01*
X026577Y003162D01*
X026604Y003119D01*
X026627Y003075D01*
X026646Y003029D01*
X026662Y002981D01*
X026674Y002932D01*
X026682Y002883D01*
X026686Y002833D01*
X026686Y002783D01*
X026682Y002733D01*
X026674Y002684D01*
X026662Y002635D01*
X026646Y002587D01*
X026627Y002541D01*
X026604Y002497D01*
X026577Y002454D01*
X026547Y002414D01*
X026515Y002376D01*
X026479Y002341D01*
X026440Y002309D01*
X026399Y002280D01*
X026356Y002254D01*
X026311Y002232D01*
X026265Y002214D01*
X026217Y002199D01*
X026168Y002188D01*
X026119Y002181D01*
X026069Y002178D01*
X026018Y002179D01*
X025969Y002184D01*
X025919Y002193D01*
X025871Y002206D01*
X025824Y002222D01*
X025778Y002243D01*
X025734Y002267D01*
X025692Y002294D01*
X025652Y002324D01*
X025615Y002358D01*
X025581Y002395D01*
X025549Y002434D01*
X025521Y002475D01*
X025496Y002519D01*
X025475Y002564D01*
X025458Y002611D01*
X025444Y002659D01*
X025434Y002708D01*
X025428Y002758D01*
X025426Y002808D01*
X025377Y019314D02*
X025379Y019364D01*
X025385Y019414D01*
X025395Y019463D01*
X025409Y019511D01*
X025426Y019558D01*
X025447Y019603D01*
X025472Y019647D01*
X025500Y019688D01*
X025532Y019727D01*
X025566Y019764D01*
X025603Y019798D01*
X025643Y019828D01*
X025685Y019855D01*
X025729Y019879D01*
X025775Y019900D01*
X025822Y019916D01*
X025870Y019929D01*
X025920Y019938D01*
X025969Y019943D01*
X026020Y019944D01*
X026070Y019941D01*
X026119Y019934D01*
X026168Y019923D01*
X026216Y019908D01*
X026262Y019890D01*
X026307Y019868D01*
X026350Y019842D01*
X026391Y019813D01*
X026430Y019781D01*
X026466Y019746D01*
X026498Y019708D01*
X026528Y019668D01*
X026555Y019625D01*
X026578Y019581D01*
X026597Y019535D01*
X026613Y019487D01*
X026625Y019438D01*
X026633Y019389D01*
X026637Y019339D01*
X026637Y019289D01*
X026633Y019239D01*
X026625Y019190D01*
X026613Y019141D01*
X026597Y019093D01*
X026578Y019047D01*
X026555Y019003D01*
X026528Y018960D01*
X026498Y018920D01*
X026466Y018882D01*
X026430Y018847D01*
X026391Y018815D01*
X026350Y018786D01*
X026307Y018760D01*
X026262Y018738D01*
X026216Y018720D01*
X026168Y018705D01*
X026119Y018694D01*
X026070Y018687D01*
X026020Y018684D01*
X025969Y018685D01*
X025920Y018690D01*
X025870Y018699D01*
X025822Y018712D01*
X025775Y018728D01*
X025729Y018749D01*
X025685Y018773D01*
X025643Y018800D01*
X025603Y018830D01*
X025566Y018864D01*
X025532Y018901D01*
X025500Y018940D01*
X025472Y018981D01*
X025447Y019025D01*
X025426Y019070D01*
X025409Y019117D01*
X025395Y019165D01*
X025385Y019214D01*
X025379Y019264D01*
X025377Y019314D01*
D11*
X000584Y004481D02*
X000584Y001095D01*
X000586Y001041D01*
X000591Y000988D01*
X000600Y000935D01*
X000613Y000883D01*
X000629Y000831D01*
X000649Y000781D01*
X000672Y000733D01*
X000699Y000686D01*
X000728Y000641D01*
X000761Y000598D01*
X000796Y000558D01*
X000834Y000520D01*
X000874Y000485D01*
X000917Y000452D01*
X000962Y000423D01*
X001009Y000396D01*
X001057Y000373D01*
X001107Y000353D01*
X001159Y000337D01*
X001211Y000324D01*
X001264Y000315D01*
X001317Y000310D01*
X001371Y000308D01*
X023363Y000284D01*
X023505Y000286D01*
X023646Y000291D01*
X023786Y000301D01*
X023927Y000314D01*
X024067Y000332D01*
X024206Y000353D01*
X024345Y000378D01*
X024484Y000407D01*
X024621Y000439D01*
X024757Y000476D01*
X024893Y000516D01*
X025027Y000560D01*
X025160Y000607D01*
X025291Y000659D01*
X025421Y000713D01*
X025550Y000772D01*
X025676Y000834D01*
X025802Y000899D01*
X025925Y000968D01*
X026046Y001040D01*
X026165Y001115D01*
X026282Y001194D01*
X026397Y001276D01*
X026510Y001361D01*
X026620Y001449D01*
X026728Y001540D01*
X026833Y001635D01*
X026936Y001732D01*
X027036Y001831D01*
X027133Y001934D01*
X027227Y002039D01*
X027318Y002146D01*
X027406Y002257D01*
X027492Y002369D01*
X027574Y002484D01*
X027652Y002601D01*
X027728Y002720D01*
X027800Y002841D01*
X027869Y002965D01*
X027935Y003090D01*
X027997Y003216D01*
X028055Y003345D01*
X028110Y003475D01*
X028162Y003606D01*
X028209Y003739D01*
X028253Y003873D01*
X028294Y004008D01*
X028330Y004145D01*
X028363Y004282D01*
X028392Y004420D01*
X028417Y004559D01*
X028438Y004699D01*
X028456Y004839D01*
X028469Y004979D01*
X028479Y005120D01*
X028485Y005261D01*
X028487Y005402D01*
X028487Y016662D01*
X028485Y016804D01*
X028479Y016946D01*
X028469Y017087D01*
X028456Y017228D01*
X028438Y017369D01*
X028417Y017509D01*
X028392Y017648D01*
X028363Y017787D01*
X028330Y017925D01*
X028293Y018062D01*
X028253Y018198D01*
X028208Y018333D01*
X028161Y018466D01*
X028109Y018598D01*
X028054Y018729D01*
X027995Y018858D01*
X027933Y018985D01*
X027867Y019111D01*
X027798Y019234D01*
X027726Y019356D01*
X027650Y019476D01*
X027571Y019594D01*
X027488Y019709D01*
X027403Y019822D01*
X027314Y019933D01*
X027223Y020041D01*
X027128Y020147D01*
X027031Y020250D01*
X026931Y020350D01*
X026828Y020448D01*
X026722Y020542D01*
X026614Y020634D01*
X026504Y020722D01*
X026391Y020808D01*
X026275Y020891D01*
X026158Y020970D01*
X026038Y021046D01*
X025916Y021118D01*
X025793Y021188D01*
X025667Y021254D01*
X025540Y021316D01*
X025411Y021375D01*
X025280Y021430D01*
X025148Y021482D01*
X025015Y021530D01*
X024880Y021574D01*
X024744Y021614D01*
X024607Y021651D01*
X024470Y021684D01*
X024331Y021714D01*
X024191Y021739D01*
X024051Y021760D01*
X023911Y021778D01*
X023770Y021792D01*
X023628Y021802D01*
X023487Y021808D01*
X023345Y021810D01*
X001400Y021804D01*
X001401Y021804D02*
X001345Y021803D01*
X001290Y021799D01*
X001235Y021792D01*
X001181Y021780D01*
X001127Y021765D01*
X001075Y021746D01*
X001024Y021724D01*
X000975Y021698D01*
X000928Y021669D01*
X000883Y021637D01*
X000840Y021602D01*
X000800Y021564D01*
X000762Y021523D01*
X000727Y021480D01*
X000695Y021435D01*
X000667Y021387D01*
X000641Y021338D01*
X000619Y021287D01*
X000601Y021235D01*
X000586Y021181D01*
X000575Y021127D01*
X000568Y021072D01*
X000564Y021017D01*
X000564Y017552D01*
X000566Y017498D01*
X000571Y017445D01*
X000580Y017392D01*
X000593Y017340D01*
X000609Y017288D01*
X000629Y017238D01*
X000652Y017190D01*
X000679Y017143D01*
X000708Y017098D01*
X000741Y017055D01*
X000776Y017015D01*
X000814Y016977D01*
X000854Y016942D01*
X000897Y016909D01*
X000942Y016880D01*
X000989Y016853D01*
X001037Y016830D01*
X001087Y016810D01*
X001139Y016794D01*
X001191Y016781D01*
X001244Y016772D01*
X001297Y016767D01*
X001351Y016765D01*
X001427Y016762D01*
X001504Y016756D01*
X001579Y016745D01*
X001655Y016731D01*
X001729Y016713D01*
X001802Y016691D01*
X001875Y016666D01*
X001945Y016637D01*
X002015Y016604D01*
X002082Y016568D01*
X002148Y016528D01*
X002211Y016486D01*
X002273Y016440D01*
X002331Y016391D01*
X002388Y016339D01*
X002441Y016284D01*
X002492Y016227D01*
X002540Y016167D01*
X002585Y016105D01*
X002626Y016041D01*
X002664Y015974D01*
X002699Y015906D01*
X002730Y015836D01*
X002758Y015765D01*
X002782Y015692D01*
X002802Y015618D01*
X002819Y015544D01*
X002832Y015468D01*
X002841Y015392D01*
X002846Y015316D01*
X002847Y015239D01*
X002847Y006715D01*
X002848Y006715D02*
X002845Y006641D01*
X002839Y006567D01*
X002829Y006494D01*
X002815Y006421D01*
X002798Y006349D01*
X002776Y006278D01*
X002752Y006208D01*
X002724Y006140D01*
X002692Y006073D01*
X002657Y006008D01*
X002619Y005944D01*
X002577Y005883D01*
X002533Y005823D01*
X002486Y005767D01*
X002435Y005712D01*
X002383Y005660D01*
X002327Y005611D01*
X002269Y005565D01*
X002209Y005522D01*
X002147Y005482D01*
X002083Y005445D01*
X002017Y005411D01*
X001949Y005381D01*
X001880Y005354D01*
X001810Y005331D01*
X001738Y005311D01*
X001666Y005295D01*
X001593Y005283D01*
X001519Y005274D01*
X001445Y005269D01*
X001371Y005268D01*
X001317Y005266D01*
X001264Y005261D01*
X001211Y005252D01*
X001159Y005239D01*
X001107Y005223D01*
X001057Y005203D01*
X001009Y005180D01*
X000962Y005153D01*
X000917Y005124D01*
X000874Y005091D01*
X000834Y005056D01*
X000796Y005018D01*
X000761Y004978D01*
X000728Y004935D01*
X000699Y004890D01*
X000672Y004843D01*
X000649Y004795D01*
X000629Y004745D01*
X000613Y004693D01*
X000600Y004641D01*
X000591Y004588D01*
X000586Y004535D01*
X000584Y004481D01*
M02*
