G75*
%MOIN*%
%OFA0B0*%
%FSLAX24Y24*%
%IPPOS*%
%LPD*%
%AMOC8*
5,1,8,0,0,1.08239X$1,22.5*
%
%ADD10C,0.1340*%
%ADD11C,0.0780*%
%ADD12R,0.0356X0.0257*%
%ADD13R,0.0580X0.0330*%
%ADD14R,0.0513X0.0474*%
%ADD15R,0.0330X0.0580*%
%ADD16C,0.0552*%
%ADD17R,0.1680X0.0680*%
%ADD18R,0.0474X0.0513*%
%ADD19R,0.0552X0.0552*%
%ADD20R,0.0434X0.0395*%
%ADD21C,0.0050*%
%ADD22R,0.0710X0.0316*%
%ADD23R,0.0434X0.0434*%
%ADD24R,0.0277X0.0277*%
%ADD25R,0.0474X0.0395*%
%ADD26C,0.0390*%
%ADD27C,0.0454*%
%ADD28C,0.0555*%
D10*
X026056Y002808D03*
X026007Y019314D03*
D11*
X002324Y001050D03*
X003324Y001050D03*
X004324Y001050D03*
X005324Y001050D03*
X006324Y001050D03*
X007324Y001050D03*
X008324Y001050D03*
X009324Y001050D03*
X010324Y001050D03*
X011332Y001056D03*
X012324Y001050D03*
X013324Y001050D03*
X014324Y001050D03*
X015324Y001050D03*
X016324Y001050D03*
X017324Y001050D03*
X018324Y001050D03*
X019324Y001050D03*
X020324Y001050D03*
X021324Y001050D03*
X022324Y001050D03*
X023324Y001050D03*
X024324Y001050D03*
X024324Y002050D03*
X023324Y002050D03*
X022324Y002050D03*
X021324Y002050D03*
X020324Y002050D03*
X019324Y002050D03*
X018324Y002050D03*
X017324Y002050D03*
X016324Y002050D03*
X015324Y002050D03*
X014324Y002050D03*
X013324Y002050D03*
X012324Y002050D03*
X011332Y002060D03*
X010324Y002050D03*
X009324Y002050D03*
X008324Y002050D03*
X007324Y002050D03*
X006324Y002050D03*
X005324Y002050D03*
X004324Y002050D03*
X003324Y002050D03*
X002324Y002050D03*
X004324Y003267D03*
X004324Y004267D03*
X005324Y004267D03*
X006322Y004257D03*
X007326Y004257D03*
X008326Y004257D03*
X009314Y004257D03*
X009324Y003257D03*
X008326Y003257D03*
X007326Y003257D03*
X006322Y003257D03*
X005324Y003267D03*
X005314Y005501D03*
X006312Y005491D03*
X007316Y005491D03*
X008316Y005491D03*
X009314Y005481D03*
X009314Y006481D03*
X008316Y006491D03*
X007316Y006491D03*
X006312Y006491D03*
X005314Y006501D03*
X004314Y006501D03*
X004314Y005501D03*
X004314Y007501D03*
X005314Y007501D03*
X006312Y007491D03*
X007316Y007491D03*
X008316Y007491D03*
X009314Y007481D03*
X009314Y008481D03*
X008316Y008491D03*
X007316Y008491D03*
X006312Y008491D03*
X005314Y008501D03*
X004314Y008501D03*
X004314Y009501D03*
X005314Y009501D03*
X006312Y009491D03*
X007316Y009491D03*
X008316Y009491D03*
X009314Y009481D03*
X009314Y010481D03*
X008316Y010491D03*
X007316Y010491D03*
X006312Y010491D03*
X005314Y010501D03*
X004314Y010501D03*
X004314Y011501D03*
X005314Y011501D03*
X006312Y011491D03*
X007316Y011491D03*
X008316Y011491D03*
X009314Y011481D03*
X009314Y012481D03*
X008316Y012491D03*
X008316Y013491D03*
X009314Y013481D03*
X009314Y014481D03*
X008316Y014491D03*
X008316Y015491D03*
X009314Y015481D03*
X009314Y016481D03*
X008316Y016491D03*
X007316Y016491D03*
X006312Y016491D03*
X005314Y016501D03*
X004314Y016501D03*
X004314Y015501D03*
X005314Y015501D03*
X006312Y015491D03*
X007316Y015491D03*
X007316Y014491D03*
X006312Y014491D03*
X005314Y014501D03*
X004314Y014501D03*
X004314Y013501D03*
X005314Y013501D03*
X006312Y013491D03*
X007316Y013491D03*
X007316Y012491D03*
X006312Y012491D03*
X005314Y012501D03*
X004314Y012501D03*
X004314Y017765D03*
X005314Y017765D03*
X006312Y017755D03*
X007316Y017755D03*
X008316Y017755D03*
X009314Y017745D03*
X009314Y018745D03*
X008316Y018755D03*
X007316Y018755D03*
X006312Y018755D03*
X005314Y018765D03*
X004314Y018765D03*
X004324Y020036D03*
X003324Y020036D03*
X002324Y020036D03*
X002324Y021036D03*
X003324Y021036D03*
X004324Y021036D03*
X005324Y021036D03*
X006324Y021036D03*
X007324Y021036D03*
X008324Y021036D03*
X009324Y021036D03*
X010324Y021036D03*
X011324Y021036D03*
X012324Y021036D03*
X013324Y021036D03*
X014324Y021036D03*
X015324Y021036D03*
X016324Y021036D03*
X017324Y021036D03*
X018324Y021036D03*
X019324Y021036D03*
X020324Y021036D03*
X021324Y021036D03*
X022324Y021036D03*
X023324Y021036D03*
X024324Y021036D03*
X024324Y020036D03*
X023324Y020036D03*
X022324Y020036D03*
X021324Y020036D03*
X020324Y020036D03*
X019324Y020036D03*
X018324Y020036D03*
X017324Y020036D03*
X016324Y020036D03*
X015324Y020036D03*
X014324Y020036D03*
X013324Y020036D03*
X012324Y020036D03*
X011324Y020036D03*
X010324Y020036D03*
X009324Y020036D03*
X008324Y020036D03*
X007324Y020036D03*
X006324Y020036D03*
X005324Y020036D03*
X011771Y016483D03*
X011771Y015483D03*
X011771Y014483D03*
X011771Y013483D03*
X011761Y012487D03*
X011761Y011487D03*
X011761Y010487D03*
X011761Y009487D03*
X011761Y008501D03*
X011761Y007501D03*
X011761Y006501D03*
X011761Y005501D03*
D12*
X016613Y015160D03*
X016613Y015475D03*
X016613Y015790D03*
X016613Y016105D03*
X017223Y016105D03*
X017223Y015790D03*
X017223Y015475D03*
X017223Y015160D03*
X019280Y015160D03*
X019280Y015475D03*
X019280Y015790D03*
X019280Y016105D03*
X019891Y016105D03*
X019891Y015790D03*
X019891Y015475D03*
X019891Y015160D03*
D13*
X021017Y016981D03*
X021017Y017336D03*
X021017Y018084D03*
X021017Y018438D03*
X014324Y003536D03*
X014324Y003182D03*
X013320Y003182D03*
X013320Y003536D03*
D14*
X023114Y008627D03*
X023114Y009297D03*
X025507Y009297D03*
X025507Y008627D03*
X025507Y011348D03*
X025507Y012017D03*
X023114Y012017D03*
X023114Y011348D03*
X020999Y015278D03*
X020999Y015948D03*
X015318Y017473D03*
X015318Y018143D03*
D15*
X014586Y015952D03*
X014231Y015952D03*
D16*
X016200Y013822D03*
X017223Y013822D03*
X018208Y013822D03*
X019192Y013822D03*
X020196Y013822D03*
X021200Y012798D03*
X021200Y011814D03*
X021200Y010810D03*
X021200Y009786D03*
X021200Y008802D03*
X021200Y007798D03*
X021200Y006794D03*
X020196Y005790D03*
X019192Y005790D03*
X018188Y005790D03*
X017184Y005790D03*
X016200Y005790D03*
X015176Y006794D03*
X015156Y007798D03*
X015156Y008802D03*
X015156Y009786D03*
X015156Y010790D03*
X015156Y011794D03*
X015156Y012798D03*
D17*
X027204Y006774D03*
X027204Y005774D03*
X027204Y004774D03*
D18*
X027204Y008763D03*
X026534Y008763D03*
X026534Y011873D03*
X027204Y011873D03*
X027204Y012906D03*
X026534Y012906D03*
X026597Y017212D03*
X027266Y017212D03*
D19*
X027213Y013950D03*
X026387Y013950D03*
X026397Y010830D03*
X027223Y010830D03*
X027223Y009786D03*
X026397Y009786D03*
D20*
X024734Y008971D03*
X023907Y009345D03*
X023907Y008597D03*
X023907Y011298D03*
X023907Y012046D03*
X024734Y011672D03*
D21*
X025147Y007792D02*
X025081Y007774D01*
X025019Y007745D01*
X024962Y007706D01*
X024914Y007657D01*
X024874Y007601D01*
X024845Y007539D01*
X024828Y007473D01*
X024822Y007404D01*
X024828Y007336D01*
X024845Y007270D01*
X024874Y007208D01*
X024914Y007151D01*
X024962Y007103D01*
X025019Y007063D01*
X025081Y007034D01*
X025147Y007017D01*
X025215Y007011D01*
X025284Y007017D01*
X025350Y007034D01*
X025412Y007063D01*
X025468Y007103D01*
X025517Y007151D01*
X025556Y007208D01*
X025585Y007270D01*
X025603Y007336D01*
X025609Y007404D01*
X025603Y007473D01*
X025585Y007539D01*
X025556Y007601D01*
X025517Y007657D01*
X025468Y007706D01*
X025412Y007745D01*
X025350Y007774D01*
X025284Y007792D01*
X025215Y007798D01*
X025147Y007792D01*
X025081Y007774D01*
X025019Y007745D01*
X024962Y007706D01*
X024914Y007657D01*
X024874Y007601D01*
X024845Y007539D01*
X024828Y007473D01*
X024822Y007404D01*
X024828Y007336D01*
X024845Y007270D01*
X024874Y007208D01*
X024914Y007151D01*
X024962Y007103D01*
X025019Y007063D01*
X025081Y007034D01*
X025147Y007017D01*
X025215Y007011D01*
X025284Y007017D01*
X025350Y007034D01*
X025412Y007063D01*
X025468Y007103D01*
X025517Y007151D01*
X025556Y007208D01*
X025585Y007270D01*
X025603Y007336D01*
X025609Y007404D01*
X025603Y007473D01*
X025585Y007539D01*
X025556Y007601D01*
X025517Y007657D01*
X025468Y007706D01*
X025412Y007745D01*
X025350Y007774D01*
X025284Y007792D01*
X025215Y007798D01*
X025147Y007792D01*
X025173Y007794D02*
X025258Y007794D01*
X025173Y007794D01*
X025020Y007746D02*
X025411Y007746D01*
X025020Y007746D01*
X024954Y007697D02*
X025477Y007697D01*
X024954Y007697D01*
X024908Y007649D02*
X025523Y007649D01*
X024908Y007649D01*
X024874Y007600D02*
X025557Y007600D01*
X024874Y007600D01*
X024851Y007552D02*
X025579Y007552D01*
X024851Y007552D01*
X024836Y007503D02*
X025595Y007503D01*
X024836Y007503D01*
X024826Y007455D02*
X025605Y007455D01*
X024826Y007455D01*
X024822Y007406D02*
X025609Y007406D01*
X024822Y007406D01*
X024826Y007358D02*
X025605Y007358D01*
X024826Y007358D01*
X024835Y007309D02*
X025596Y007309D01*
X024835Y007309D01*
X024850Y007261D02*
X025581Y007261D01*
X024850Y007261D01*
X024872Y007212D02*
X025559Y007212D01*
X024872Y007212D01*
X024905Y007164D02*
X025526Y007164D01*
X024905Y007164D01*
X024950Y007115D02*
X025481Y007115D01*
X024950Y007115D01*
X025014Y007067D02*
X025417Y007067D01*
X025014Y007067D01*
X025141Y007018D02*
X025290Y007018D01*
X025141Y007018D01*
X016530Y003799D02*
X016501Y003861D01*
X016462Y003917D01*
X016413Y003966D01*
X016357Y004005D01*
X016295Y004034D01*
X016229Y004052D01*
X016160Y004058D01*
X016092Y004052D01*
X016026Y004034D01*
X015963Y004005D01*
X015907Y003966D01*
X015859Y003917D01*
X015819Y003861D01*
X015790Y003799D01*
X015773Y003733D01*
X015767Y003664D01*
X015773Y003596D01*
X015790Y003530D01*
X015819Y003467D01*
X015859Y003411D01*
X015907Y003363D01*
X015963Y003323D01*
X016026Y003294D01*
X016092Y003277D01*
X016160Y003271D01*
X016229Y003277D01*
X016295Y003294D01*
X016357Y003323D01*
X016413Y003363D01*
X016462Y003411D01*
X016501Y003467D01*
X016530Y003530D01*
X016548Y003596D01*
X016554Y003664D01*
X016548Y003733D01*
X016530Y003799D01*
X016501Y003861D01*
X016462Y003917D01*
X016413Y003966D01*
X016357Y004005D01*
X016295Y004034D01*
X016229Y004052D01*
X016160Y004058D01*
X016092Y004052D01*
X016026Y004034D01*
X015963Y004005D01*
X015907Y003966D01*
X015859Y003917D01*
X015819Y003861D01*
X015790Y003799D01*
X015773Y003733D01*
X015767Y003664D01*
X015773Y003596D01*
X015790Y003530D01*
X015819Y003467D01*
X015859Y003411D01*
X015907Y003363D01*
X015963Y003323D01*
X016026Y003294D01*
X016092Y003277D01*
X016160Y003271D01*
X016229Y003277D01*
X016295Y003294D01*
X016357Y003323D01*
X016413Y003363D01*
X016462Y003411D01*
X016501Y003467D01*
X016530Y003530D01*
X016548Y003596D01*
X016554Y003664D01*
X016548Y003733D01*
X016530Y003799D01*
X016522Y003817D02*
X015799Y003817D01*
X016522Y003817D01*
X016538Y003769D02*
X015782Y003769D01*
X016538Y003769D01*
X016549Y003720D02*
X015772Y003720D01*
X016549Y003720D01*
X016553Y003672D02*
X015767Y003672D01*
X016553Y003672D01*
X016550Y003623D02*
X015770Y003623D01*
X016550Y003623D01*
X016542Y003575D02*
X015778Y003575D01*
X016542Y003575D01*
X016529Y003526D02*
X015792Y003526D01*
X016529Y003526D01*
X016506Y003478D02*
X015814Y003478D01*
X016506Y003478D01*
X016475Y003429D02*
X015846Y003429D01*
X016475Y003429D01*
X016432Y003381D02*
X015889Y003381D01*
X016432Y003381D01*
X016370Y003332D02*
X015950Y003332D01*
X016370Y003332D01*
X016256Y003284D02*
X016065Y003284D01*
X016256Y003284D01*
X016498Y003866D02*
X015823Y003866D01*
X016498Y003866D01*
X016464Y003914D02*
X015857Y003914D01*
X016464Y003914D01*
X016416Y003963D02*
X015904Y003963D01*
X016416Y003963D01*
X016344Y004011D02*
X015977Y004011D01*
X016344Y004011D01*
X022981Y017959D02*
X023043Y017930D01*
X023110Y017912D01*
X023178Y017906D01*
X023246Y017912D01*
X023313Y017930D01*
X023375Y017959D01*
X023431Y017998D01*
X023480Y018047D01*
X023519Y018103D01*
X023548Y018165D01*
X023566Y018232D01*
X023572Y018300D01*
X023566Y018368D01*
X023548Y018435D01*
X023519Y018497D01*
X023480Y018553D01*
X023431Y018602D01*
X023375Y018641D01*
X023313Y018670D01*
X023246Y018688D01*
X023178Y018694D01*
X023110Y018688D01*
X023043Y018670D01*
X022981Y018641D01*
X022925Y018602D01*
X022876Y018553D01*
X022837Y018497D01*
X022808Y018435D01*
X022790Y018368D01*
X022784Y018300D01*
X022790Y018232D01*
X022808Y018165D01*
X022837Y018103D01*
X022876Y018047D01*
X022925Y017998D01*
X022981Y017959D01*
X023043Y017930D01*
X023110Y017912D01*
X023178Y017906D01*
X023246Y017912D01*
X023313Y017930D01*
X023375Y017959D01*
X023431Y017998D01*
X023480Y018047D01*
X023519Y018103D01*
X023548Y018165D01*
X023566Y018232D01*
X023572Y018300D01*
X023566Y018368D01*
X023548Y018435D01*
X023519Y018497D01*
X023480Y018553D01*
X023431Y018602D01*
X023375Y018641D01*
X023313Y018670D01*
X023246Y018688D01*
X023178Y018694D01*
X023110Y018688D01*
X023043Y018670D01*
X022981Y018641D01*
X022925Y018602D01*
X022876Y018553D01*
X022837Y018497D01*
X022808Y018435D01*
X022790Y018368D01*
X022784Y018300D01*
X022790Y018232D01*
X022808Y018165D01*
X022837Y018103D01*
X022876Y018047D01*
X022925Y017998D01*
X022981Y017959D01*
X022952Y017979D02*
X023404Y017979D01*
X022952Y017979D01*
X022895Y018028D02*
X023461Y018028D01*
X022895Y018028D01*
X022856Y018076D02*
X023500Y018076D01*
X022856Y018076D01*
X022827Y018125D02*
X023529Y018125D01*
X022827Y018125D01*
X022806Y018173D02*
X023550Y018173D01*
X022806Y018173D01*
X022793Y018222D02*
X023563Y018222D01*
X022793Y018222D01*
X022787Y018270D02*
X023569Y018270D01*
X022787Y018270D01*
X022786Y018319D02*
X023570Y018319D01*
X022786Y018319D01*
X022790Y018367D02*
X023566Y018367D01*
X022790Y018367D01*
X022803Y018416D02*
X023553Y018416D01*
X022803Y018416D01*
X022822Y018464D02*
X023534Y018464D01*
X022822Y018464D01*
X022848Y018513D02*
X023508Y018513D01*
X022848Y018513D01*
X022885Y018561D02*
X023471Y018561D01*
X022885Y018561D01*
X022937Y018610D02*
X023419Y018610D01*
X022937Y018610D01*
X023019Y018658D02*
X023338Y018658D01*
X023019Y018658D01*
X023042Y017931D02*
X023314Y017931D01*
X023042Y017931D01*
D22*
X019292Y017975D03*
X019292Y017475D03*
X019292Y016979D03*
X019292Y018475D03*
X017202Y018479D03*
X017202Y017979D03*
X017202Y017479D03*
X017202Y016979D03*
D23*
X015343Y016410D03*
X015343Y015948D03*
X015343Y015485D03*
D24*
X013414Y014166D03*
X013414Y013773D03*
X012863Y013773D03*
X012863Y014166D03*
X012863Y012188D03*
X012863Y011794D03*
X013414Y011794D03*
X013414Y012188D03*
X013414Y010180D03*
X013414Y009786D03*
X012863Y009786D03*
X012863Y010180D03*
X012853Y008192D03*
X012853Y007798D03*
X013404Y007798D03*
X013404Y008192D03*
X013404Y006204D03*
X013404Y005810D03*
X012853Y005810D03*
X012853Y006204D03*
D25*
X025855Y015210D03*
X025855Y016076D03*
X027273Y016076D03*
X027273Y015210D03*
D26*
X019755Y004121D03*
X019755Y003621D03*
X019255Y003621D03*
X019255Y004121D03*
X018755Y004121D03*
X018755Y003621D03*
D27*
X018255Y003471D03*
X018255Y004271D03*
X020255Y003871D03*
D28*
X014320Y004107D03*
X013326Y004107D03*
M02*
